<svg version="1.2" xmlns="http://www.w3.org/2000/svg" width="576px" height="216px" viewBox="0 0 576 216"><rect width="576" height="216" fill="#fff" x="0" y="0"></rect><g transform="translate(10,10)"><line x1="0" y1="26" x2="556" y2="26" stroke="black"></line><g transform="translate(0,7)" style="font-size: 14px; font-weight: 600;"><text x="73.34170854271356" y="0" style="font-size: 12px; text-anchor: middle;"></text><text x="0" y="0" style="font-size: 12px;"><tspan x="0" dy="1em">Characteristic</tspan></text></g><g transform="translate(146.68341708542712,7)" style="font-size: 14px; font-weight: 600;"><text x="34.92462311557789" y="0" style="font-size: 12px; text-anchor: middle;"><tspan x="34.92462311557789" dy="1em">p.value</tspan></text></g><g transform="translate(426.08040201005025,7)" style="font-size: 14px; font-weight: 600;"><text x="64.95979899497488" y="0" style="font-size: 12px; text-anchor: middle;"><tspan x="64.95979899497488" dy="1em">Hazard Ratio(95%CI)</tspan></text></g></g><g transform="translate(10,36)"><g transform="translate(0,7)"><text x="73.34170854271356" y="0" style="font-size: 12px; text-anchor: middle;"></text><text x="0" y="0" style="font-size: 12px;"><tspan x="0" dy="1em">T Stage(T3+T4 vs T1+T2)</tspan></text></g><g transform="translate(146.68341708542712,7)"><text x="34.92462311557789" y="0" style="font-size: 12px; text-anchor: middle;"><tspan x="34.92462311557789" dy="1em">0.00701</tspan></text></g><line x1="35.72254947849971" y1="9" x2="35.72254947849971" y2="17" stroke="black" transform="translate(216.5326633165829,0)"></line><line x1="88.7539631373034" y1="13" x2="35.72254947849971" y2="13" stroke="black" transform="translate(216.5326633165829,0)" stroke-dasharray="2,3"></line><line x1="174.93001033285938" y1="9" x2="174.93001033285938" y2="17" stroke="black" transform="translate(216.5326633165829,0)"></line><line x1="88.7539631373034" y1="13" x2="174.93001033285938" y2="13" stroke="black" transform="translate(216.5326633165829,0)" stroke-dasharray="2,3"></line><circle r="4" cx="88.7539631373034" cy="13" transform="translate(216.5326633165829,0)" fill="red"></circle><g transform="translate(426.08040201005025,7)"><text x="64.95979899497488" y="0" style="font-size: 12px; text-anchor: middle;"><tspan x="64.95979899497488" dy="1em">1.92(1.2-3.09)</tspan></text></g></g><g transform="translate(10,62)"><g transform="translate(0,7)"><text x="73.34170854271356" y="0" style="font-size: 12px; text-anchor: middle;"></text><text x="0" y="0" style="font-size: 12px;"><tspan x="0" dy="1em">N Stage(N1+N2+N3 vs N0)</tspan></text></g><g transform="translate(146.68341708542712,7)"><text x="34.92462311557789" y="0" style="font-size: 12px; text-anchor: middle;"><tspan x="34.92462311557789" dy="1em">0.007</tspan></text></g><line x1="33.51290724271622" y1="9" x2="33.51290724271622" y2="17" stroke="black" transform="translate(216.5326633165829,0)"></line><line x1="76.23265713453031" y1="13" x2="33.51290724271622" y2="13" stroke="black" transform="translate(216.5326633165829,0)" stroke-dasharray="2,3"></line><line x1="141.04882938417924" y1="9" x2="141.04882938417924" y2="17" stroke="black" transform="translate(216.5326633165829,0)"></line><line x1="76.23265713453031" y1="13" x2="141.04882938417924" y2="13" stroke="black" transform="translate(216.5326633165829,0)" stroke-dasharray="2,3"></line><circle r="4" cx="76.23265713453031" cy="13" transform="translate(216.5326633165829,0)" fill="red"></circle><g transform="translate(426.08040201005025,7)"><text x="64.95979899497488" y="0" style="font-size: 12px; text-anchor: middle;"><tspan x="64.95979899497488" dy="1em">1.75(1.17-2.63)</tspan></text></g></g><g transform="translate(10,88)"><g transform="translate(0,7)"><text x="73.34170854271356" y="0" style="font-size: 12px; text-anchor: middle;"></text><text x="0" y="0" style="font-size: 12px;"><tspan x="0" dy="1em">M Stage(M1 vs M0)</tspan></text></g><g transform="translate(146.68341708542712,7)"><text x="34.92462311557789" y="0" style="font-size: 12px; text-anchor: middle;"><tspan x="34.92462311557789" dy="1em">0.265</tspan></text></g><line x1="2.9461896477113183" y1="9" x2="2.9461896477113183" y2="17" stroke="black" transform="translate(216.5326633165829,0)"></line><line x1="54.136234776695424" y1="13" x2="2.9461896477113183" y2="13" stroke="black" transform="translate(216.5326633165829,0)" stroke-dasharray="2,3"></line><line x1="151.36049315116887" y1="9" x2="151.36049315116887" y2="17" stroke="black" transform="translate(216.5326633165829,0)"></line><line x1="54.136234776695424" y1="13" x2="151.36049315116887" y2="13" stroke="black" transform="translate(216.5326633165829,0)" stroke-dasharray="2,3"></line><circle r="4" cx="54.136234776695424" cy="13" transform="translate(216.5326633165829,0)" fill="red"></circle><g transform="translate(426.08040201005025,7)"><text x="64.95979899497488" y="0" style="font-size: 12px; text-anchor: middle;"><tspan x="64.95979899497488" dy="1em">1.45(0.755-2.77)</tspan></text></g></g><g transform="translate(10,114)"><g transform="translate(0,7)"><text x="73.34170854271356" y="0" style="font-size: 12px; text-anchor: middle;"></text><text x="0" y="0" style="font-size: 12px;"><tspan x="0" dy="1em">Stage(III+IV vs I+II)</tspan></text></g><g transform="translate(146.68341708542712,7)"><text x="34.92462311557789" y="0" style="font-size: 12px; text-anchor: middle;"><tspan x="34.92462311557789" dy="1em">0.519</tspan></text></g><line x1="0" y1="9" x2="0" y2="17" stroke="black" transform="translate(216.5326633165829,0)"></line><line x1="34.24945465464405" y1="13" x2="0" y2="13" stroke="black" transform="translate(216.5326633165829,0)" stroke-dasharray="2,3"></line><line x1="90.22705796115905" y1="9" x2="90.22705796115905" y2="17" stroke="black" transform="translate(216.5326633165829,0)"></line><line x1="34.24945465464405" y1="13" x2="90.22705796115905" y2="13" stroke="black" transform="translate(216.5326633165829,0)" stroke-dasharray="2,3"></line><circle r="4" cx="34.24945465464405" cy="13" transform="translate(216.5326633165829,0)" fill="red"></circle><g transform="translate(426.08040201005025,7)"><text x="64.95979899497488" y="0" style="font-size: 12px; text-anchor: middle;"><tspan x="64.95979899497488" dy="1em">1.18(0.715-1.94)</tspan></text></g></g><g transform="translate(10,140)"><line x1="0" y1="26" x2="556" y2="26" stroke="black"></line><g transform="translate(0,7)"><text x="73.34170854271356" y="0" style="font-size: 12px; text-anchor: middle;"></text><text x="0" y="0" style="font-size: 12px;"><tspan x="0" dy="1em">AMrs(Continous)</tspan></text></g><g transform="translate(146.68341708542712,7)"><text x="34.92462311557789" y="0" style="font-size: 12px; text-anchor: middle;"><tspan x="34.92462311557789" dy="1em">2.92e-07</tspan></text></g><line x1="76.96920454645812" y1="9" x2="76.96920454645812" y2="17" stroke="black" transform="translate(216.5326633165829,0)"></line><line x1="132.21026044104528" y1="13" x2="76.96920454645812" y2="13" stroke="black" transform="translate(216.5326633165829,0)" stroke-dasharray="2,3"></line><line x1="209.54773869346735" y1="9" x2="209.54773869346735" y2="17" stroke="black" transform="translate(216.5326633165829,0)"></line><line x1="132.21026044104528" y1="13" x2="209.54773869346735" y2="13" stroke="black" transform="translate(216.5326633165829,0)" stroke-dasharray="2,3"></line><circle r="4" cx="132.21026044104528" cy="13" transform="translate(216.5326633165829,0)" fill="red"></circle><g transform="translate(426.08040201005025,7)"><text x="64.95979899497488" y="0" style="font-size: 12px; text-anchor: middle;"><tspan x="64.95979899497488" dy="1em">2.51(1.76-3.56)</tspan></text></g></g><g class="axis  x-axis" transform="translate(226.5326633165829,166)" fill="none" font-size="10" font-family="sans-serif" text-anchor="middle"><path class="domain" stroke="currentColor" d="M0.5,6V0.5H210.04773869346735V6"></path><g class="tick" opacity="1" transform="translate(6.760653001386552,0)"><line stroke="currentColor" y2="6"></line><text fill="currentColor" y="9" dy="0.71em">0.8</text></g><g class="tick" opacity="1" transform="translate(21.491601239943126,0)"><line stroke="currentColor" y2="6"></line><text fill="currentColor" y="9" dy="0.71em">1.0</text></g><g class="tick" opacity="1" transform="translate(36.22254947849971,0)"><line stroke="currentColor" y2="6"></line><text fill="currentColor" y="9" dy="0.71em">1.2</text></g><g class="tick" opacity="1" transform="translate(50.95349771705628,0)"><line stroke="currentColor" y2="6"></line><text fill="currentColor" y="9" dy="0.71em">1.4</text></g><g class="tick" opacity="1" transform="translate(65.68444595561287,0)"><line stroke="currentColor" y2="6"></line><text fill="currentColor" y="9" dy="0.71em">1.6</text></g><g class="tick" opacity="1" transform="translate(80.41539419416944,0)"><line stroke="currentColor" y2="6"></line><text fill="currentColor" y="9" dy="0.71em">1.8</text></g><g class="tick" opacity="1" transform="translate(95.14634243272603,0)"><line stroke="currentColor" y2="6"></line><text fill="currentColor" y="9" dy="0.71em">2.0</text></g><g class="tick" opacity="1" transform="translate(109.87729067128264,0)"><line stroke="currentColor" y2="6"></line><text fill="currentColor" y="9" dy="0.71em">2.2</text></g><g class="tick" opacity="1" transform="translate(124.60823890983917,0)"><line stroke="currentColor" y2="6"></line><text fill="currentColor" y="9" dy="0.71em">2.4</text></g><g class="tick" opacity="1" transform="translate(139.33918714839578,0)"><line stroke="currentColor" y2="6"></line><text fill="currentColor" y="9" dy="0.71em">2.6</text></g><g class="tick" opacity="1" transform="translate(154.07013538695233,0)"><line stroke="currentColor" y2="6"></line><text fill="currentColor" y="9" dy="0.71em">2.8</text></g><g class="tick" opacity="1" transform="translate(168.8010836255089,0)"><line stroke="currentColor" y2="6"></line><text fill="currentColor" y="9" dy="0.71em">3.0</text></g><g class="tick" opacity="1" transform="translate(183.53203186406552,0)"><line stroke="currentColor" y2="6"></line><text fill="currentColor" y="9" dy="0.71em">3.2</text></g><g class="tick" opacity="1" transform="translate(198.26298010262207,0)"><line stroke="currentColor" y2="6"></line><text fill="currentColor" y="9" dy="0.71em">3.4</text></g></g><text text-anchor="middle" transform="translate(331.3065326633166,196)">Hazard Ratio(95%CI)</text><line x1="0" y1="36" x2="0" y2="166" stroke="black" stroke-dasharray="2,5" transform="translate(247.52426455652602,0)"></line></svg>