<svg version="1.2" xmlns="http://www.w3.org/2000/svg" width="576px" height="216px" viewBox="0 0 576 216"><rect width="576" height="216" fill="#fff" x="0" y="0"></rect><g transform="translate(10,10)"><line x1="0" y1="19.5" x2="556" y2="19.5" stroke="black"></line><g transform="translate(0,3.75)" style="font-size: 14px; font-weight: 600;"><text x="73.34170854271356" y="0" style="font-size: 12px; text-anchor: middle;"></text><text x="0" y="0" style="font-size: 12px;"><tspan x="0" dy="1em">Characteristic</tspan></text></g><g transform="translate(146.68341708542712,3.75)" style="font-size: 14px; font-weight: 600;"><text x="34.92462311557789" y="0" style="font-size: 12px; text-anchor: middle;"><tspan x="34.92462311557789" dy="1em">p.value</tspan></text></g><g transform="translate(426.08040201005025,3.75)" style="font-size: 14px; font-weight: 600;"><text x="64.95979899497488" y="0" style="font-size: 12px; text-anchor: middle;"><tspan x="64.95979899497488" dy="1em">Hazard Ratio(95%CI)</tspan></text></g></g><g transform="translate(10,29.5)"><g transform="translate(0,3.75)"><text x="73.34170854271356" y="0" style="font-size: 12px; text-anchor: middle;"></text><text x="0" y="0" style="font-size: 12px;"><tspan x="0" dy="1em">T Stage(T3+T4 vs T1+T2)</tspan></text></g><g transform="translate(146.68341708542712,3.75)"><text x="34.92462311557789" y="0" style="font-size: 12px; text-anchor: middle;"><tspan x="34.92462311557789" dy="1em">1.5e-05</tspan></text></g><line x1="58.98326652446047" y1="5.75" x2="58.98326652446047" y2="13.75" stroke="black" transform="translate(216.5326633165829,0)"></line><line x1="112.33863772998231" y1="9.75" x2="58.98326652446047" y2="9.75" stroke="black" transform="translate(216.5326633165829,0)" stroke-dasharray="2,3"></line><line x1="192.0062467902821" y1="5.75" x2="192.0062467902821" y2="13.75" stroke="black" transform="translate(216.5326633165829,0)"></line><line x1="112.33863772998231" y1="9.75" x2="192.0062467902821" y2="9.75" stroke="black" transform="translate(216.5326633165829,0)" stroke-dasharray="2,3"></line><circle r="4" cx="112.33863772998231" cy="9.75" transform="translate(216.5326633165829,0)" fill="red"></circle><g transform="translate(426.08040201005025,3.75)"><text x="64.95979899497488" y="0" style="font-size: 12px; text-anchor: middle;"><tspan x="64.95979899497488" dy="1em">2.32(1.59-3.41)</tspan></text></g></g><g transform="translate(10,49)"><g transform="translate(0,3.75)"><text x="73.34170854271356" y="0" style="font-size: 12px; text-anchor: middle;"></text><text x="0" y="0" style="font-size: 12px;"><tspan x="0" dy="1em">N Stage(N1+N2+N3 vs N0)</tspan></text></g><g transform="translate(146.68341708542712,3.75)"><text x="34.92462311557789" y="0" style="font-size: 12px; text-anchor: middle;"><tspan x="34.92462311557789" dy="1em">5.43e-10</tspan></text></g><line x1="82.37192239537413" y1="5.75" x2="82.37192239537413" y2="13.75" stroke="black" transform="translate(216.5326633165829,0)"></line><line x1="130.61102512913362" y1="9.75" x2="82.37192239537413" y2="9.75" stroke="black" transform="translate(216.5326633165829,0)" stroke-dasharray="2,3"></line><line x1="195.66072427011235" y1="5.75" x2="195.66072427011235" y2="13.75" stroke="black" transform="translate(216.5326633165829,0)"></line><line x1="130.61102512913362" y1="9.75" x2="195.66072427011235" y2="9.75" stroke="black" transform="translate(216.5326633165829,0)" stroke-dasharray="2,3"></line><circle r="4" cx="130.61102512913362" cy="9.75" transform="translate(216.5326633165829,0)" fill="red"></circle><g transform="translate(426.08040201005025,3.75)"><text x="64.95979899497488" y="0" style="font-size: 12px; text-anchor: middle;"><tspan x="64.95979899497488" dy="1em">2.57(1.91-3.46)</tspan></text></g></g><g transform="translate(10,68.5)"><g transform="translate(0,3.75)"><text x="73.34170854271356" y="0" style="font-size: 12px; text-anchor: middle;"></text><text x="0" y="0" style="font-size: 12px;"><tspan x="0" dy="1em">M Stage(M1 vs M0)</tspan></text></g><g transform="translate(146.68341708542712,3.75)"><text x="34.92462311557789" y="0" style="font-size: 12px; text-anchor: middle;"><tspan x="34.92462311557789" dy="1em">0.00599</tspan></text></g><line x1="33.401924165648616" y1="5.75" x2="33.401924165648616" y2="13.75" stroke="black" transform="translate(216.5326633165829,0)"></line><line x1="98.45162330662731" y1="9.75" x2="33.401924165648616" y2="9.75" stroke="black" transform="translate(216.5326633165829,0)" stroke-dasharray="2,3"></line><line x1="209.54773869346735" y1="5.75" x2="209.54773869346735" y2="13.75" stroke="black" transform="translate(216.5326633165829,0)"></line><line x1="98.45162330662731" y1="9.75" x2="209.54773869346735" y2="9.75" stroke="black" transform="translate(216.5326633165829,0)" stroke-dasharray="2,3"></line><circle r="4" cx="98.45162330662731" cy="9.75" transform="translate(216.5326633165829,0)" fill="red"></circle><g transform="translate(426.08040201005025,3.75)"><text x="64.95979899497488" y="0" style="font-size: 12px; text-anchor: middle;"><tspan x="64.95979899497488" dy="1em">2.13(1.24-3.65)</tspan></text></g></g><g transform="translate(10,88)"><g transform="translate(0,3.75)"><text x="73.34170854271356" y="0" style="font-size: 12px; text-anchor: middle;"></text><text x="0" y="0" style="font-size: 12px;"><tspan x="0" dy="1em">Stage(III+IV vs I+II)</tspan></text></g><g transform="translate(146.68341708542712,3.75)"><text x="34.92462311557789" y="0" style="font-size: 12px; text-anchor: middle;"><tspan x="34.92462311557789" dy="1em">3.19e-09</tspan></text></g><line x1="80.179235907476" y1="5.75" x2="80.179235907476" y2="13.75" stroke="black" transform="translate(216.5326633165829,0)"></line><line x1="129.8801296331676" y1="9.75" x2="80.179235907476" y2="9.75" stroke="black" transform="translate(216.5326633165829,0)" stroke-dasharray="2,3"></line><line x1="198.58430625397656" y1="5.75" x2="198.58430625397656" y2="13.75" stroke="black" transform="translate(216.5326633165829,0)"></line><line x1="129.8801296331676" y1="9.75" x2="198.58430625397656" y2="9.75" stroke="black" transform="translate(216.5326633165829,0)" stroke-dasharray="2,3"></line><circle r="4" cx="129.8801296331676" cy="9.75" transform="translate(216.5326633165829,0)" fill="red"></circle><g transform="translate(426.08040201005025,3.75)"><text x="64.95979899497488" y="0" style="font-size: 12px; text-anchor: middle;"><tspan x="64.95979899497488" dy="1em">2.56(1.88-3.5)</tspan></text></g></g><g transform="translate(10,107.5)"><g transform="translate(0,3.75)"><text x="73.34170854271356" y="0" style="font-size: 12px; text-anchor: middle;"></text><text x="0" y="0" style="font-size: 12px;"><tspan x="0" dy="1em">Age(Continous)</tspan></text></g><g transform="translate(146.68341708542712,3.75)"><text x="34.92462311557789" y="0" style="font-size: 12px; text-anchor: middle;"><tspan x="34.92462311557789" dy="1em">0.222</tspan></text></g><line x1="15.421894964883714" y1="5.75" x2="15.421894964883714" y2="13.75" stroke="black" transform="translate(216.5326633165829,0)"></line><line x1="16.591327758429397" y1="9.75" x2="15.421894964883714" y2="9.75" stroke="black" transform="translate(216.5326633165829,0)" stroke-dasharray="2,3"></line><line x1="18.053118750361506" y1="5.75" x2="18.053118750361506" y2="13.75" stroke="black" transform="translate(216.5326633165829,0)"></line><line x1="16.591327758429397" y1="9.75" x2="18.053118750361506" y2="9.75" stroke="black" transform="translate(216.5326633165829,0)" stroke-dasharray="2,3"></line><circle r="4" cx="16.591327758429397" cy="9.75" transform="translate(216.5326633165829,0)" fill="red"></circle><g transform="translate(426.08040201005025,3.75)"><text x="64.95979899497488" y="0" style="font-size: 12px; text-anchor: middle;"><tspan x="64.95979899497488" dy="1em">1.01(0.994-1.03)</tspan></text></g></g><g transform="translate(10,127)"><g transform="translate(0,3.75)"><text x="73.34170854271356" y="0" style="font-size: 12px; text-anchor: middle;"></text><text x="0" y="0" style="font-size: 12px;"><tspan x="0" dy="1em">Gender(Male vs Female)</tspan></text></g><g transform="translate(146.68341708542712,3.75)"><text x="34.92462311557789" y="0" style="font-size: 12px; text-anchor: middle;"><tspan x="34.92462311557789" dy="1em">0.741</tspan></text></g><line x1="0" y1="5.75" x2="0" y2="13.75" stroke="black" transform="translate(216.5326633165829,0)"></line><line x1="19.51490974229361" y1="9.75" x2="0" y2="9.75" stroke="black" transform="translate(216.5326633165829,0)" stroke-dasharray="2,3"></line><line x1="45.82714759707151" y1="5.75" x2="45.82714759707151" y2="13.75" stroke="black" transform="translate(216.5326633165829,0)"></line><line x1="19.51490974229361" y1="9.75" x2="45.82714759707151" y2="9.75" stroke="black" transform="translate(216.5326633165829,0)" stroke-dasharray="2,3"></line><circle r="4" cx="19.51490974229361" cy="9.75" transform="translate(216.5326633165829,0)" fill="red"></circle><g transform="translate(426.08040201005025,3.75)"><text x="64.95979899497488" y="0" style="font-size: 12px; text-anchor: middle;"><tspan x="64.95979899497488" dy="1em">1.05(0.783-1.41)</tspan></text></g></g><g transform="translate(10,146.5)"><line x1="0" y1="19.5" x2="556" y2="19.5" stroke="black"></line><g transform="translate(0,3.75)"><text x="73.34170854271356" y="0" style="font-size: 12px; text-anchor: middle;"></text><text x="0" y="0" style="font-size: 12px;"><tspan x="0" dy="1em">AMrs(Continous)</tspan></text></g><g transform="translate(146.68341708542712,3.75)"><text x="34.92462311557789" y="0" style="font-size: 12px; text-anchor: middle;"><tspan x="34.92462311557789" dy="1em">9.74e-12</tspan></text></g><line x1="91.87356384293285" y1="5.75" x2="91.87356384293285" y2="13.75" stroke="black" transform="translate(216.5326633165829,0)"></line><line x1="141.57445756862447" y1="9.75" x2="91.87356384293285" y2="9.75" stroke="black" transform="translate(216.5326633165829,0)" stroke-dasharray="2,3"></line><line x1="207.35505220556922" y1="5.75" x2="207.35505220556922" y2="13.75" stroke="black" transform="translate(216.5326633165829,0)"></line><line x1="141.57445756862447" y1="9.75" x2="207.35505220556922" y2="9.75" stroke="black" transform="translate(216.5326633165829,0)" stroke-dasharray="2,3"></line><circle r="4" cx="141.57445756862447" cy="9.75" transform="translate(216.5326633165829,0)" fill="red"></circle><g transform="translate(426.08040201005025,3.75)"><text x="64.95979899497488" y="0" style="font-size: 12px; text-anchor: middle;"><tspan x="64.95979899497488" dy="1em">2.72(2.04-3.62)</tspan></text></g></g><g class="axis  x-axis" transform="translate(226.5326633165829,166)" fill="none" font-size="10" font-family="sans-serif" text-anchor="middle"><path class="domain" stroke="currentColor" d="M0.5,6V0.5H210.04773869346735V6"></path><g class="tick" opacity="1" transform="translate(1.742522343142291,0)"><line stroke="currentColor" y2="6"></line><text fill="currentColor" y="9" dy="0.71em">0.8</text></g><g class="tick" opacity="1" transform="translate(16.360432262463345,0)"><line stroke="currentColor" y2="6"></line><text fill="currentColor" y="9" dy="0.71em">1.0</text></g><g class="tick" opacity="1" transform="translate(30.9783421817844,0)"><line stroke="currentColor" y2="6"></line><text fill="currentColor" y="9" dy="0.71em">1.2</text></g><g class="tick" opacity="1" transform="translate(45.59625210110545,0)"><line stroke="currentColor" y2="6"></line><text fill="currentColor" y="9" dy="0.71em">1.4</text></g><g class="tick" opacity="1" transform="translate(60.21416202042653,0)"><line stroke="currentColor" y2="6"></line><text fill="currentColor" y="9" dy="0.71em">1.6</text></g><g class="tick" opacity="1" transform="translate(74.83207193974758,0)"><line stroke="currentColor" y2="6"></line><text fill="currentColor" y="9" dy="0.71em">1.8</text></g><g class="tick" opacity="1" transform="translate(89.44998185906864,0)"><line stroke="currentColor" y2="6"></line><text fill="currentColor" y="9" dy="0.71em">2.0</text></g><g class="tick" opacity="1" transform="translate(104.06789177838971,0)"><line stroke="currentColor" y2="6"></line><text fill="currentColor" y="9" dy="0.71em">2.2</text></g><g class="tick" opacity="1" transform="translate(118.68580169771073,0)"><line stroke="currentColor" y2="6"></line><text fill="currentColor" y="9" dy="0.71em">2.4</text></g><g class="tick" opacity="1" transform="translate(133.3037116170318,0)"><line stroke="currentColor" y2="6"></line><text fill="currentColor" y="9" dy="0.71em">2.6</text></g><g class="tick" opacity="1" transform="translate(147.92162153635286,0)"><line stroke="currentColor" y2="6"></line><text fill="currentColor" y="9" dy="0.71em">2.8</text></g><g class="tick" opacity="1" transform="translate(162.53953145567394,0)"><line stroke="currentColor" y2="6"></line><text fill="currentColor" y="9" dy="0.71em">3.0</text></g><g class="tick" opacity="1" transform="translate(177.157441374995,0)"><line stroke="currentColor" y2="6"></line><text fill="currentColor" y="9" dy="0.71em">3.2</text></g><g class="tick" opacity="1" transform="translate(191.775351294316,0)"><line stroke="currentColor" y2="6"></line><text fill="currentColor" y="9" dy="0.71em">3.4</text></g><g class="tick" opacity="1" transform="translate(206.39326121363712,0)"><line stroke="currentColor" y2="6"></line><text fill="currentColor" y="9" dy="0.71em">3.6</text></g></g><text text-anchor="middle" transform="translate(331.3065326633166,196)">Hazard Ratio(95%CI)</text><line x1="0" y1="29.5" x2="0" y2="166" stroke="black" stroke-dasharray="2,5" transform="translate(242.39309557904625,0)"></line></svg>